<mxfile host="app.diagrams.net" modified="2023-12-03T23:43:42.041Z" agent="Mozilla/5.0 (Windows NT 10.0; Win64; x64) AppleWebKit/537.36 (KHTML, like Gecko) Chrome/119.0.0.0 Safari/537.36 Edg/119.0.0.0" etag="iuj5L42jiPOXLiRH1fpk" version="22.1.5" type="device">
  <diagram name="Страница — 1" id="nsXlW_DT-UsqhyboqPyw">
    <mxGraphModel dx="2807" dy="1133" grid="1" gridSize="10" guides="1" tooltips="1" connect="1" arrows="1" fold="1" page="1" pageScale="1" pageWidth="827" pageHeight="1169" math="0" shadow="0">
      <root>
        <mxCell id="0" />
        <mxCell id="1" parent="0" />
        <mxCell id="zxyF027QwPhP6R2RznG6-3" style="edgeStyle=orthogonalEdgeStyle;rounded=0;orthogonalLoop=1;jettySize=auto;html=1;" edge="1" parent="1" source="zxyF027QwPhP6R2RznG6-1" target="zxyF027QwPhP6R2RznG6-2">
          <mxGeometry relative="1" as="geometry" />
        </mxCell>
        <mxCell id="zxyF027QwPhP6R2RznG6-1" value="главное меню" style="whiteSpace=wrap;html=1;aspect=fixed;" vertex="1" parent="1">
          <mxGeometry x="360" y="40" width="80" height="80" as="geometry" />
        </mxCell>
        <mxCell id="zxyF027QwPhP6R2RznG6-5" style="edgeStyle=orthogonalEdgeStyle;rounded=0;orthogonalLoop=1;jettySize=auto;html=1;" edge="1" parent="1" source="zxyF027QwPhP6R2RznG6-2" target="zxyF027QwPhP6R2RznG6-4">
          <mxGeometry relative="1" as="geometry" />
        </mxCell>
        <mxCell id="zxyF027QwPhP6R2RznG6-2" value="магазин" style="whiteSpace=wrap;html=1;aspect=fixed;" vertex="1" parent="1">
          <mxGeometry x="160" y="200" width="80" height="80" as="geometry" />
        </mxCell>
        <mxCell id="zxyF027QwPhP6R2RznG6-8" style="edgeStyle=orthogonalEdgeStyle;rounded=0;orthogonalLoop=1;jettySize=auto;html=1;" edge="1" parent="1" source="zxyF027QwPhP6R2RznG6-4" target="zxyF027QwPhP6R2RznG6-6">
          <mxGeometry relative="1" as="geometry" />
        </mxCell>
        <mxCell id="zxyF027QwPhP6R2RznG6-23" style="edgeStyle=orthogonalEdgeStyle;rounded=0;orthogonalLoop=1;jettySize=auto;html=1;exitX=0;exitY=0.5;exitDx=0;exitDy=0;entryX=0.5;entryY=0;entryDx=0;entryDy=0;" edge="1" parent="1" source="zxyF027QwPhP6R2RznG6-4" target="zxyF027QwPhP6R2RznG6-14">
          <mxGeometry relative="1" as="geometry" />
        </mxCell>
        <mxCell id="zxyF027QwPhP6R2RznG6-4" value="все башни" style="whiteSpace=wrap;html=1;aspect=fixed;" vertex="1" parent="1">
          <mxGeometry x="160" y="360" width="80" height="80" as="geometry" />
        </mxCell>
        <mxCell id="zxyF027QwPhP6R2RznG6-6" value="Entity" style="swimlane;childLayout=stackLayout;horizontal=1;startSize=50;horizontalStack=0;rounded=1;fontSize=14;fontStyle=0;strokeWidth=2;resizeParent=0;resizeLast=1;shadow=0;dashed=0;align=center;arcSize=4;whiteSpace=wrap;html=1;" vertex="1" parent="1">
          <mxGeometry x="180" y="750" width="160" height="170" as="geometry" />
        </mxCell>
        <mxCell id="zxyF027QwPhP6R2RznG6-7" value="+Spicks 1&lt;br style=&quot;border-color: var(--border-color);&quot;&gt;+Attribute2&lt;br style=&quot;border-color: var(--border-color);&quot;&gt;+Attribute3&lt;br style=&quot;border-color: var(--border-color);&quot;&gt;+Attribute2&lt;br style=&quot;border-color: var(--border-color);&quot;&gt;+Attribute3&lt;br style=&quot;border-color: var(--border-color);&quot;&gt;+Attribute2&lt;br style=&quot;border-color: var(--border-color);&quot;&gt;+Attribute3" style="align=left;strokeColor=none;fillColor=none;spacingLeft=4;fontSize=12;verticalAlign=top;resizable=0;rotatable=0;part=1;html=1;" vertex="1" parent="zxyF027QwPhP6R2RznG6-6">
          <mxGeometry y="50" width="160" height="120" as="geometry" />
        </mxCell>
        <mxCell id="zxyF027QwPhP6R2RznG6-50" style="edgeStyle=orthogonalEdgeStyle;rounded=0;orthogonalLoop=1;jettySize=auto;html=1;" edge="1" parent="1" source="zxyF027QwPhP6R2RznG6-9" target="zxyF027QwPhP6R2RznG6-45">
          <mxGeometry relative="1" as="geometry" />
        </mxCell>
        <mxCell id="zxyF027QwPhP6R2RznG6-51" style="edgeStyle=orthogonalEdgeStyle;rounded=0;orthogonalLoop=1;jettySize=auto;html=1;" edge="1" parent="1" source="zxyF027QwPhP6R2RznG6-9" target="zxyF027QwPhP6R2RznG6-36">
          <mxGeometry relative="1" as="geometry">
            <Array as="points">
              <mxPoint x="790" y="856" />
              <mxPoint x="790" y="546" />
            </Array>
          </mxGeometry>
        </mxCell>
        <mxCell id="zxyF027QwPhP6R2RznG6-9" value="Touwers" style="swimlane;fontStyle=1;align=center;verticalAlign=top;childLayout=stackLayout;horizontal=1;startSize=26;horizontalStack=0;resizeParent=1;resizeParentMax=0;resizeLast=0;collapsible=1;marginBottom=0;whiteSpace=wrap;html=1;" vertex="1" parent="1">
          <mxGeometry x="440" y="800" width="160" height="112" as="geometry" />
        </mxCell>
        <mxCell id="zxyF027QwPhP6R2RznG6-10" value="+ field: расположение" style="text;strokeColor=none;fillColor=none;align=left;verticalAlign=top;spacingLeft=4;spacingRight=4;overflow=hidden;rotatable=0;points=[[0,0.5],[1,0.5]];portConstraint=eastwest;whiteSpace=wrap;html=1;" vertex="1" parent="zxyF027QwPhP6R2RznG6-9">
          <mxGeometry y="26" width="160" height="26" as="geometry" />
        </mxCell>
        <mxCell id="zxyF027QwPhP6R2RznG6-30" value="+ field: здоровье" style="text;strokeColor=none;fillColor=none;align=left;verticalAlign=top;spacingLeft=4;spacingRight=4;overflow=hidden;rotatable=0;points=[[0,0.5],[1,0.5]];portConstraint=eastwest;whiteSpace=wrap;html=1;" vertex="1" parent="zxyF027QwPhP6R2RznG6-9">
          <mxGeometry y="52" width="160" height="26" as="geometry" />
        </mxCell>
        <mxCell id="zxyF027QwPhP6R2RznG6-11" value="" style="line;strokeWidth=1;fillColor=none;align=left;verticalAlign=middle;spacingTop=-1;spacingLeft=3;spacingRight=3;rotatable=0;labelPosition=right;points=[];portConstraint=eastwest;strokeColor=inherit;" vertex="1" parent="zxyF027QwPhP6R2RznG6-9">
          <mxGeometry y="78" width="160" height="8" as="geometry" />
        </mxCell>
        <mxCell id="zxyF027QwPhP6R2RznG6-12" value="+ method(type): type" style="text;strokeColor=none;fillColor=none;align=left;verticalAlign=top;spacingLeft=4;spacingRight=4;overflow=hidden;rotatable=0;points=[[0,0.5],[1,0.5]];portConstraint=eastwest;whiteSpace=wrap;html=1;" vertex="1" parent="zxyF027QwPhP6R2RznG6-9">
          <mxGeometry y="86" width="160" height="26" as="geometry" />
        </mxCell>
        <mxCell id="zxyF027QwPhP6R2RznG6-13" style="edgeStyle=orthogonalEdgeStyle;rounded=0;orthogonalLoop=1;jettySize=auto;html=1;exitX=1;exitY=0.25;exitDx=0;exitDy=0;entryX=-0.019;entryY=0.174;entryDx=0;entryDy=0;entryPerimeter=0;" edge="1" parent="1" source="zxyF027QwPhP6R2RznG6-7" target="zxyF027QwPhP6R2RznG6-9">
          <mxGeometry relative="1" as="geometry" />
        </mxCell>
        <mxCell id="zxyF027QwPhP6R2RznG6-14" value="Vertical Flow Layout" style="swimlane;startSize=20;horizontal=1;childLayout=flowLayout;flowOrientation=north;resizable=0;interRankCellSpacing=50;containerType=tree;fontSize=12;" vertex="1" parent="1">
          <mxGeometry x="-220" y="450" width="400" height="280" as="geometry" />
        </mxCell>
        <mxCell id="zxyF027QwPhP6R2RznG6-25" style="edgeStyle=orthogonalEdgeStyle;rounded=0;orthogonalLoop=1;jettySize=auto;html=1;noEdgeStyle=1;orthogonal=1;" edge="1" parent="zxyF027QwPhP6R2RznG6-14" source="zxyF027QwPhP6R2RznG6-15" target="zxyF027QwPhP6R2RznG6-24">
          <mxGeometry relative="1" as="geometry">
            <Array as="points">
              <mxPoint x="230" y="92" />
              <mxPoint x="330" y="118" />
            </Array>
          </mxGeometry>
        </mxCell>
        <mxCell id="zxyF027QwPhP6R2RznG6-15" value="Выбор башни" style="whiteSpace=wrap;html=1;" vertex="1" parent="zxyF027QwPhP6R2RznG6-14">
          <mxGeometry x="150" y="40" width="100" height="40" as="geometry" />
        </mxCell>
        <mxCell id="zxyF027QwPhP6R2RznG6-16" value="Улучшение" style="whiteSpace=wrap;html=1;" vertex="1" parent="zxyF027QwPhP6R2RznG6-14">
          <mxGeometry x="20" y="130" width="100" height="40" as="geometry" />
        </mxCell>
        <mxCell id="zxyF027QwPhP6R2RznG6-17" value="" style="html=1;rounded=1;curved=0;sourcePerimeterSpacing=0;targetPerimeterSpacing=0;startSize=6;endSize=6;noEdgeStyle=1;orthogonal=1;" edge="1" parent="zxyF027QwPhP6R2RznG6-14" source="zxyF027QwPhP6R2RznG6-15" target="zxyF027QwPhP6R2RznG6-16">
          <mxGeometry relative="1" as="geometry">
            <Array as="points">
              <mxPoint x="170" y="92" />
              <mxPoint x="70" y="118" />
            </Array>
          </mxGeometry>
        </mxCell>
        <mxCell id="zxyF027QwPhP6R2RznG6-18" value="Внешний вид" style="whiteSpace=wrap;html=1;" vertex="1" parent="zxyF027QwPhP6R2RznG6-14">
          <mxGeometry x="150" y="130" width="100" height="40" as="geometry" />
        </mxCell>
        <mxCell id="zxyF027QwPhP6R2RznG6-19" value="" style="html=1;rounded=1;curved=0;sourcePerimeterSpacing=0;targetPerimeterSpacing=0;startSize=6;endSize=6;noEdgeStyle=1;orthogonal=1;" edge="1" parent="zxyF027QwPhP6R2RznG6-14" source="zxyF027QwPhP6R2RznG6-15" target="zxyF027QwPhP6R2RznG6-18">
          <mxGeometry relative="1" as="geometry">
            <Array as="points">
              <mxPoint x="200" y="94" />
              <mxPoint x="200" y="118" />
            </Array>
          </mxGeometry>
        </mxCell>
        <mxCell id="zxyF027QwPhP6R2RznG6-20" value="End" style="whiteSpace=wrap;html=1;" vertex="1" parent="zxyF027QwPhP6R2RznG6-14">
          <mxGeometry x="150" y="220" width="100" height="40" as="geometry" />
        </mxCell>
        <mxCell id="zxyF027QwPhP6R2RznG6-21" value="" style="html=1;rounded=1;curved=0;sourcePerimeterSpacing=0;targetPerimeterSpacing=0;startSize=6;endSize=6;noEdgeStyle=1;orthogonal=1;" edge="1" parent="zxyF027QwPhP6R2RznG6-14" source="zxyF027QwPhP6R2RznG6-16" target="zxyF027QwPhP6R2RznG6-20">
          <mxGeometry relative="1" as="geometry">
            <Array as="points">
              <mxPoint x="70" y="182" />
              <mxPoint x="170" y="208" />
            </Array>
          </mxGeometry>
        </mxCell>
        <mxCell id="zxyF027QwPhP6R2RznG6-22" value="" style="html=1;rounded=1;curved=0;sourcePerimeterSpacing=0;targetPerimeterSpacing=0;startSize=6;endSize=6;noEdgeStyle=1;orthogonal=1;" edge="1" parent="zxyF027QwPhP6R2RznG6-14" source="zxyF027QwPhP6R2RznG6-18" target="zxyF027QwPhP6R2RznG6-20">
          <mxGeometry relative="1" as="geometry">
            <Array as="points">
              <mxPoint x="200" y="182" />
              <mxPoint x="200" y="206" />
            </Array>
          </mxGeometry>
        </mxCell>
        <mxCell id="zxyF027QwPhP6R2RznG6-26" style="edgeStyle=orthogonalEdgeStyle;rounded=0;orthogonalLoop=1;jettySize=auto;html=1;entryX=0.75;entryY=0;entryDx=0;entryDy=0;noEdgeStyle=1;orthogonal=1;" edge="1" parent="zxyF027QwPhP6R2RznG6-14" source="zxyF027QwPhP6R2RznG6-24" target="zxyF027QwPhP6R2RznG6-20">
          <mxGeometry relative="1" as="geometry">
            <Array as="points">
              <mxPoint x="330" y="182" />
              <mxPoint x="230" y="208" />
            </Array>
          </mxGeometry>
        </mxCell>
        <mxCell id="zxyF027QwPhP6R2RznG6-24" value="Расположение" style="whiteSpace=wrap;html=1;" vertex="1" parent="zxyF027QwPhP6R2RznG6-14">
          <mxGeometry x="280" y="130" width="100" height="40" as="geometry" />
        </mxCell>
        <mxCell id="zxyF027QwPhP6R2RznG6-29" style="edgeStyle=orthogonalEdgeStyle;rounded=0;orthogonalLoop=1;jettySize=auto;html=1;" edge="1" parent="1" source="zxyF027QwPhP6R2RznG6-28" target="zxyF027QwPhP6R2RznG6-7">
          <mxGeometry relative="1" as="geometry" />
        </mxCell>
        <mxCell id="zxyF027QwPhP6R2RznG6-28" value="Увеличение статов" style="whiteSpace=wrap;html=1;aspect=fixed;" vertex="1" parent="1">
          <mxGeometry x="-200" y="870" width="80" height="80" as="geometry" />
        </mxCell>
        <mxCell id="zxyF027QwPhP6R2RznG6-27" style="edgeStyle=orthogonalEdgeStyle;rounded=0;orthogonalLoop=1;jettySize=auto;html=1;entryX=0.5;entryY=0;entryDx=0;entryDy=0;" edge="1" parent="1" source="zxyF027QwPhP6R2RznG6-16" target="zxyF027QwPhP6R2RznG6-28">
          <mxGeometry relative="1" as="geometry">
            <mxPoint x="-120" y="1020" as="targetPoint" />
            <Array as="points">
              <mxPoint x="-160" y="770" />
              <mxPoint x="-160" y="770" />
            </Array>
          </mxGeometry>
        </mxCell>
        <mxCell id="zxyF027QwPhP6R2RznG6-33" style="edgeStyle=orthogonalEdgeStyle;rounded=0;orthogonalLoop=1;jettySize=auto;html=1;entryX=0;entryY=0.25;entryDx=0;entryDy=0;" edge="1" parent="1" source="zxyF027QwPhP6R2RznG6-31" target="zxyF027QwPhP6R2RznG6-7">
          <mxGeometry relative="1" as="geometry" />
        </mxCell>
        <mxCell id="zxyF027QwPhP6R2RznG6-31" value="Улучшается внешний вид башен" style="whiteSpace=wrap;html=1;aspect=fixed;" vertex="1" parent="1">
          <mxGeometry x="-80" y="790" width="80" height="80" as="geometry" />
        </mxCell>
        <mxCell id="zxyF027QwPhP6R2RznG6-32" style="edgeStyle=orthogonalEdgeStyle;rounded=0;orthogonalLoop=1;jettySize=auto;html=1;exitX=0.25;exitY=1;exitDx=0;exitDy=0;" edge="1" parent="1" source="zxyF027QwPhP6R2RznG6-18" target="zxyF027QwPhP6R2RznG6-31">
          <mxGeometry relative="1" as="geometry" />
        </mxCell>
        <mxCell id="zxyF027QwPhP6R2RznG6-36" value="Atack Touwers" style="swimlane;fontStyle=1;align=center;verticalAlign=top;childLayout=stackLayout;horizontal=1;startSize=26;horizontalStack=0;resizeParent=1;resizeParentMax=0;resizeLast=0;collapsible=1;marginBottom=0;whiteSpace=wrap;html=1;" vertex="1" parent="1">
          <mxGeometry x="870" y="490" width="160" height="112" as="geometry" />
        </mxCell>
        <mxCell id="zxyF027QwPhP6R2RznG6-39" value="+ field: Дамаг" style="text;strokeColor=none;fillColor=none;align=left;verticalAlign=top;spacingLeft=4;spacingRight=4;overflow=hidden;rotatable=0;points=[[0,0.5],[1,0.5]];portConstraint=eastwest;whiteSpace=wrap;html=1;" vertex="1" parent="zxyF027QwPhP6R2RznG6-36">
          <mxGeometry y="26" width="160" height="26" as="geometry" />
        </mxCell>
        <mxCell id="zxyF027QwPhP6R2RznG6-40" value="+ field: CD Атаки" style="text;strokeColor=none;fillColor=none;align=left;verticalAlign=top;spacingLeft=4;spacingRight=4;overflow=hidden;rotatable=0;points=[[0,0.5],[1,0.5]];portConstraint=eastwest;whiteSpace=wrap;html=1;" vertex="1" parent="zxyF027QwPhP6R2RznG6-36">
          <mxGeometry y="52" width="160" height="26" as="geometry" />
        </mxCell>
        <mxCell id="zxyF027QwPhP6R2RznG6-41" value="" style="line;strokeWidth=1;fillColor=none;align=left;verticalAlign=middle;spacingTop=-1;spacingLeft=3;spacingRight=3;rotatable=0;labelPosition=right;points=[];portConstraint=eastwest;strokeColor=inherit;" vertex="1" parent="zxyF027QwPhP6R2RznG6-36">
          <mxGeometry y="78" width="160" height="8" as="geometry" />
        </mxCell>
        <mxCell id="zxyF027QwPhP6R2RznG6-42" value="+ method(type): type" style="text;strokeColor=none;fillColor=none;align=left;verticalAlign=top;spacingLeft=4;spacingRight=4;overflow=hidden;rotatable=0;points=[[0,0.5],[1,0.5]];portConstraint=eastwest;whiteSpace=wrap;html=1;" vertex="1" parent="zxyF027QwPhP6R2RznG6-36">
          <mxGeometry y="86" width="160" height="26" as="geometry" />
        </mxCell>
        <mxCell id="zxyF027QwPhP6R2RznG6-45" value="Support Touwers" style="swimlane;fontStyle=1;align=center;verticalAlign=top;childLayout=stackLayout;horizontal=1;startSize=26;horizontalStack=0;resizeParent=1;resizeParentMax=0;resizeLast=0;collapsible=1;marginBottom=0;whiteSpace=wrap;html=1;" vertex="1" parent="1">
          <mxGeometry x="870" y="860" width="160" height="112" as="geometry" />
        </mxCell>
        <mxCell id="zxyF027QwPhP6R2RznG6-46" value="+ field: Дамаг" style="text;strokeColor=none;fillColor=none;align=left;verticalAlign=top;spacingLeft=4;spacingRight=4;overflow=hidden;rotatable=0;points=[[0,0.5],[1,0.5]];portConstraint=eastwest;whiteSpace=wrap;html=1;" vertex="1" parent="zxyF027QwPhP6R2RznG6-45">
          <mxGeometry y="26" width="160" height="26" as="geometry" />
        </mxCell>
        <mxCell id="zxyF027QwPhP6R2RznG6-47" value="+ field: CD Атаки" style="text;strokeColor=none;fillColor=none;align=left;verticalAlign=top;spacingLeft=4;spacingRight=4;overflow=hidden;rotatable=0;points=[[0,0.5],[1,0.5]];portConstraint=eastwest;whiteSpace=wrap;html=1;" vertex="1" parent="zxyF027QwPhP6R2RznG6-45">
          <mxGeometry y="52" width="160" height="26" as="geometry" />
        </mxCell>
        <mxCell id="zxyF027QwPhP6R2RznG6-48" value="" style="line;strokeWidth=1;fillColor=none;align=left;verticalAlign=middle;spacingTop=-1;spacingLeft=3;spacingRight=3;rotatable=0;labelPosition=right;points=[];portConstraint=eastwest;strokeColor=inherit;" vertex="1" parent="zxyF027QwPhP6R2RznG6-45">
          <mxGeometry y="78" width="160" height="8" as="geometry" />
        </mxCell>
        <mxCell id="zxyF027QwPhP6R2RznG6-49" value="+ method(type): type" style="text;strokeColor=none;fillColor=none;align=left;verticalAlign=top;spacingLeft=4;spacingRight=4;overflow=hidden;rotatable=0;points=[[0,0.5],[1,0.5]];portConstraint=eastwest;whiteSpace=wrap;html=1;" vertex="1" parent="zxyF027QwPhP6R2RznG6-45">
          <mxGeometry y="86" width="160" height="26" as="geometry" />
        </mxCell>
      </root>
    </mxGraphModel>
  </diagram>
</mxfile>
